<mxfile host="app.diagrams.net" agent="Mozilla/5.0 (Macintosh; Intel Mac OS X 10_15_7) AppleWebKit/605.1.15 (KHTML, like Gecko) Version/18.5 Safari/605.1.15" version="27.1.6" pages="2">
  <diagram name="Network Diagram" id="hbQltnraALIPvpT0pcOt">
    <mxGraphModel dx="1234" dy="832" grid="1" gridSize="10" guides="1" tooltips="1" connect="1" arrows="1" fold="1" page="1" pageScale="1" pageWidth="1100" pageHeight="850" math="0" shadow="0">
      <root>
        <mxCell id="0" />
        <mxCell id="1" parent="0" />
        <mxCell id="PlRji3XvTjhjcelXqh6b-2" value="" style="shape=mxgraph.cisco.routers.router;sketch=0;html=1;pointerEvents=1;dashed=0;fillColor=#036897;strokeColor=#ffffff;strokeWidth=2;verticalLabelPosition=bottom;verticalAlign=top;align=center;outlineConnect=0;" vertex="1" parent="1">
          <mxGeometry x="496" y="230" width="109" height="63" as="geometry" />
        </mxCell>
        <mxCell id="PlRji3XvTjhjcelXqh6b-3" value="" style="shape=mxgraph.cisco.switches.layer_2_remote_switch;sketch=0;html=1;pointerEvents=1;dashed=0;fillColor=#036897;strokeColor=#ffffff;strokeWidth=2;verticalLabelPosition=bottom;verticalAlign=top;align=center;outlineConnect=0;" vertex="1" parent="1">
          <mxGeometry x="489" y="395" width="122" height="60" as="geometry" />
        </mxCell>
        <mxCell id="PlRji3XvTjhjcelXqh6b-5" value="" style="shape=mxgraph.cisco.storage.cloud;sketch=0;html=1;pointerEvents=1;dashed=0;fillColor=#036897;strokeColor=#ffffff;strokeWidth=2;verticalLabelPosition=bottom;verticalAlign=top;align=center;outlineConnect=0;" vertex="1" parent="1">
          <mxGeometry x="457" y="40" width="186" height="106" as="geometry" />
        </mxCell>
        <mxCell id="PlRji3XvTjhjcelXqh6b-13" value="" style="endArrow=none;html=1;rounded=0;entryX=0.5;entryY=0.99;entryDx=0;entryDy=0;entryPerimeter=0;exitX=0.5;exitY=0;exitDx=0;exitDy=0;exitPerimeter=0;" edge="1" parent="1" source="PlRji3XvTjhjcelXqh6b-2" target="PlRji3XvTjhjcelXqh6b-5">
          <mxGeometry width="50" height="50" relative="1" as="geometry">
            <mxPoint x="260" y="320" as="sourcePoint" />
            <mxPoint x="310" y="270" as="targetPoint" />
          </mxGeometry>
        </mxCell>
        <mxCell id="PlRji3XvTjhjcelXqh6b-15" value="" style="endArrow=none;html=1;rounded=0;entryX=0.5;entryY=1;entryDx=0;entryDy=0;entryPerimeter=0;exitX=0.5;exitY=0;exitDx=0;exitDy=0;exitPerimeter=0;" edge="1" parent="1" source="PlRji3XvTjhjcelXqh6b-3" target="PlRji3XvTjhjcelXqh6b-2">
          <mxGeometry width="50" height="50" relative="1" as="geometry">
            <mxPoint x="250" y="500" as="sourcePoint" />
            <mxPoint x="300" y="450" as="targetPoint" />
          </mxGeometry>
        </mxCell>
        <mxCell id="PlRji3XvTjhjcelXqh6b-16" value="" style="endArrow=none;html=1;rounded=0;entryX=0;entryY=1;entryDx=0;entryDy=0;entryPerimeter=0;exitX=0.5;exitY=0;exitDx=0;exitDy=0;exitPerimeter=0;" edge="1" parent="1" source="PlRji3XvTjhjcelXqh6b-10" target="PlRji3XvTjhjcelXqh6b-3">
          <mxGeometry width="50" height="50" relative="1" as="geometry">
            <mxPoint x="310" y="350" as="sourcePoint" />
            <mxPoint x="360" y="300" as="targetPoint" />
          </mxGeometry>
        </mxCell>
        <mxCell id="PlRji3XvTjhjcelXqh6b-17" value="" style="endArrow=none;html=1;rounded=0;entryX=0.5;entryY=1;entryDx=0;entryDy=0;entryPerimeter=0;exitX=0.5;exitY=0;exitDx=0;exitDy=0;exitPerimeter=0;" edge="1" parent="1" source="PlRji3XvTjhjcelXqh6b-11" target="PlRji3XvTjhjcelXqh6b-3">
          <mxGeometry width="50" height="50" relative="1" as="geometry">
            <mxPoint x="250" y="410" as="sourcePoint" />
            <mxPoint x="300" y="360" as="targetPoint" />
          </mxGeometry>
        </mxCell>
        <mxCell id="PlRji3XvTjhjcelXqh6b-18" value="" style="endArrow=none;html=1;rounded=0;entryX=1;entryY=1;entryDx=0;entryDy=0;entryPerimeter=0;exitX=0.5;exitY=0;exitDx=0;exitDy=0;exitPerimeter=0;" edge="1" parent="1" source="PlRji3XvTjhjcelXqh6b-12" target="PlRji3XvTjhjcelXqh6b-3">
          <mxGeometry width="50" height="50" relative="1" as="geometry">
            <mxPoint x="260" y="450" as="sourcePoint" />
            <mxPoint x="310" y="400" as="targetPoint" />
          </mxGeometry>
        </mxCell>
        <mxCell id="PlRji3XvTjhjcelXqh6b-23" value="THE INTERNET" style="text;html=1;align=center;verticalAlign=middle;whiteSpace=wrap;rounded=0;" vertex="1" parent="1">
          <mxGeometry x="505" y="78" width="90" height="30" as="geometry" />
        </mxCell>
        <mxCell id="PlRji3XvTjhjcelXqh6b-25" value="UDM-SE" style="text;html=1;align=center;verticalAlign=middle;whiteSpace=wrap;rounded=0;" vertex="1" parent="1">
          <mxGeometry x="620" y="246.5" width="60" height="30" as="geometry" />
        </mxCell>
        <mxCell id="PlRji3XvTjhjcelXqh6b-26" value="&lt;span style=&quot;text-align: start; caret-color: rgb(128, 136, 147); font-family: &amp;quot;UI Sans&amp;quot;, Lato, HelveticaNeue, &amp;quot;Helvetica Neue&amp;quot;, Helvetica, Arial, sans-serif; background-color: rgb(255, 255, 255); color: light-dark(rgb(128, 136, 147), rgb(250, 250, 250));&quot;&gt;USW-Pro-Aggregation&lt;/span&gt;" style="text;html=1;align=center;verticalAlign=middle;whiteSpace=wrap;rounded=0;" vertex="1" parent="1">
          <mxGeometry x="620" y="410" width="129" height="30" as="geometry" />
        </mxCell>
        <mxCell id="PlRji3XvTjhjcelXqh6b-31" value="Trunk" style="text;html=1;align=center;verticalAlign=middle;whiteSpace=wrap;rounded=0;" vertex="1" parent="1">
          <mxGeometry x="496" y="330" width="60" height="30" as="geometry" />
        </mxCell>
        <mxCell id="O9GT7WR2b5fpZviuFctH-2" value="" style="group" vertex="1" connectable="0" parent="1">
          <mxGeometry x="595" y="560" width="180" height="240" as="geometry" />
        </mxCell>
        <mxCell id="PlRji3XvTjhjcelXqh6b-11" value="" style="verticalLabelPosition=bottom;verticalAlign=top;html=1;shape=mxgraph.basic.patternFillRect;fillStyle=diagGrid;step=5;fillStrokeWidth=0.2;fillStrokeColor=#dddddd;fillColor=#d5e8d4;strokeColor=#82b366;" vertex="1" parent="O9GT7WR2b5fpZviuFctH-2">
          <mxGeometry width="180" height="240" as="geometry" />
        </mxCell>
        <mxCell id="PlRji3XvTjhjcelXqh6b-8" value="" style="html=1;verticalLabelPosition=bottom;align=center;labelBackgroundColor=#ffffff;verticalAlign=top;strokeWidth=2;strokeColor=light-dark(#0080F0,#66B2FF);shadow=0;dashed=0;shape=mxgraph.ios7.icons.lightbulb;" vertex="1" parent="O9GT7WR2b5fpZviuFctH-2">
          <mxGeometry x="105" y="60" width="55" height="75" as="geometry" />
        </mxCell>
        <mxCell id="PlRji3XvTjhjcelXqh6b-21" value="IOT Network - VLAN 4" style="text;html=1;align=center;verticalAlign=middle;whiteSpace=wrap;rounded=0;" vertex="1" parent="O9GT7WR2b5fpZviuFctH-2">
          <mxGeometry x="10" y="10" width="160" height="30" as="geometry" />
        </mxCell>
        <mxCell id="PlRji3XvTjhjcelXqh6b-29" value="" style="outlineConnect=0;dashed=0;verticalLabelPosition=bottom;verticalAlign=top;align=center;html=1;shape=mxgraph.aws3.thermostat;fillColor=#5294CF;gradientColor=none;" vertex="1" parent="O9GT7WR2b5fpZviuFctH-2">
          <mxGeometry x="11" y="148" width="79.5" height="79.5" as="geometry" />
        </mxCell>
        <mxCell id="O9GT7WR2b5fpZviuFctH-3" value="" style="group" vertex="1" connectable="0" parent="1">
          <mxGeometry x="100" y="560" width="180" height="240" as="geometry" />
        </mxCell>
        <mxCell id="PlRji3XvTjhjcelXqh6b-10" value="" style="verticalLabelPosition=bottom;verticalAlign=top;html=1;shape=mxgraph.basic.patternFillRect;fillStyle=diagGrid;step=5;fillStrokeWidth=0.2;fillStrokeColor=#dddddd;fillColor=#dae8fc;strokeColor=#6c8ebf;" vertex="1" parent="O9GT7WR2b5fpZviuFctH-3">
          <mxGeometry width="180" height="240" as="geometry" />
        </mxCell>
        <mxCell id="PlRji3XvTjhjcelXqh6b-4" value="" style="shape=mxgraph.cisco.people.androgenous_person;sketch=0;html=1;pointerEvents=1;dashed=0;fillColor=#036897;strokeColor=#ffffff;strokeWidth=2;verticalLabelPosition=bottom;verticalAlign=top;align=center;outlineConnect=0;" vertex="1" parent="O9GT7WR2b5fpZviuFctH-3">
          <mxGeometry x="20" y="60" width="64.5" height="71" as="geometry" />
        </mxCell>
        <mxCell id="PlRji3XvTjhjcelXqh6b-20" value="Client Network - VLAN 2" style="text;html=1;align=center;verticalAlign=middle;whiteSpace=wrap;rounded=0;" vertex="1" parent="O9GT7WR2b5fpZviuFctH-3">
          <mxGeometry x="10" y="10" width="160" height="30" as="geometry" />
        </mxCell>
        <mxCell id="PlRji3XvTjhjcelXqh6b-27" value="" style="shape=mxgraph.cisco.computers_and_peripherals.tablet;sketch=0;html=1;pointerEvents=1;dashed=0;fillColor=#036897;strokeColor=#ffffff;strokeWidth=2;verticalLabelPosition=bottom;verticalAlign=top;align=center;outlineConnect=0;" vertex="1" parent="O9GT7WR2b5fpZviuFctH-3">
          <mxGeometry x="50" y="165" width="80" height="45" as="geometry" />
        </mxCell>
        <mxCell id="PlRji3XvTjhjcelXqh6b-28" value="" style="shape=mxgraph.cisco.computers_and_peripherals.laptop;sketch=0;html=1;pointerEvents=1;dashed=0;fillColor=#036897;strokeColor=#ffffff;strokeWidth=2;verticalLabelPosition=bottom;verticalAlign=top;align=center;outlineConnect=0;" vertex="1" parent="O9GT7WR2b5fpZviuFctH-3">
          <mxGeometry x="100" y="80" width="60" height="41" as="geometry" />
        </mxCell>
        <mxCell id="O9GT7WR2b5fpZviuFctH-9" value="" style="endArrow=none;html=1;rounded=0;entryX=0.5;entryY=1;entryDx=0;entryDy=0;entryPerimeter=0;exitX=0.5;exitY=0;exitDx=0;exitDy=0;exitPerimeter=0;" edge="1" parent="1" source="O9GT7WR2b5fpZviuFctH-5" target="PlRji3XvTjhjcelXqh6b-3">
          <mxGeometry width="50" height="50" relative="1" as="geometry">
            <mxPoint x="220" y="450" as="sourcePoint" />
            <mxPoint x="270" y="400" as="targetPoint" />
          </mxGeometry>
        </mxCell>
        <mxCell id="O9GT7WR2b5fpZviuFctH-10" value="" style="group" vertex="1" connectable="0" parent="1">
          <mxGeometry x="840" y="560" width="180" height="240" as="geometry" />
        </mxCell>
        <mxCell id="O9GT7WR2b5fpZviuFctH-1" value="" style="group;fillColor=#fff2cc;strokeColor=#d6b656;container=0;" vertex="1" connectable="0" parent="O9GT7WR2b5fpZviuFctH-10">
          <mxGeometry width="180" height="240" as="geometry" />
        </mxCell>
        <mxCell id="PlRji3XvTjhjcelXqh6b-12" value="" style="verticalLabelPosition=bottom;verticalAlign=top;html=1;shape=mxgraph.basic.patternFillRect;fillStyle=diagGrid;step=5;fillStrokeWidth=0.2;fillStrokeColor=#dddddd;fillColor=#ffe6cc;strokeColor=#d79b00;" vertex="1" parent="O9GT7WR2b5fpZviuFctH-10">
          <mxGeometry width="180" height="240" as="geometry" />
        </mxCell>
        <mxCell id="PlRji3XvTjhjcelXqh6b-6" value="" style="shape=mxgraph.cisco.servers.storage_server;sketch=0;html=1;pointerEvents=1;dashed=0;fillColor=#036897;strokeColor=#ffffff;strokeWidth=2;verticalLabelPosition=bottom;verticalAlign=top;align=center;outlineConnect=0;" vertex="1" parent="O9GT7WR2b5fpZviuFctH-10">
          <mxGeometry x="100" y="60" width="60" height="81" as="geometry" />
        </mxCell>
        <mxCell id="PlRji3XvTjhjcelXqh6b-7" value="" style="shape=mxgraph.cisco.servers.standard_host;sketch=0;html=1;pointerEvents=1;dashed=0;fillColor=#036897;strokeColor=#ffffff;strokeWidth=2;verticalLabelPosition=bottom;verticalAlign=top;align=center;outlineConnect=0;" vertex="1" parent="O9GT7WR2b5fpZviuFctH-10">
          <mxGeometry x="10" y="60" width="60" height="81" as="geometry" />
        </mxCell>
        <mxCell id="PlRji3XvTjhjcelXqh6b-22" value="Server Network - VLAN 5" style="text;html=1;align=center;verticalAlign=middle;whiteSpace=wrap;rounded=0;" vertex="1" parent="O9GT7WR2b5fpZviuFctH-10">
          <mxGeometry x="10" y="10" width="160" height="30" as="geometry" />
        </mxCell>
        <mxCell id="PlRji3XvTjhjcelXqh6b-30" value="" style="shape=mxgraph.cisco.computers_and_peripherals.supercomputer;sketch=0;html=1;pointerEvents=1;dashed=0;fillColor=#036897;strokeColor=#ffffff;strokeWidth=2;verticalLabelPosition=bottom;verticalAlign=top;align=center;outlineConnect=0;" vertex="1" parent="O9GT7WR2b5fpZviuFctH-10">
          <mxGeometry x="63.5" y="154" width="53" height="67" as="geometry" />
        </mxCell>
        <mxCell id="O9GT7WR2b5fpZviuFctH-14" value="" style="group" vertex="1" connectable="0" parent="1">
          <mxGeometry x="341" y="560" width="180" height="240" as="geometry" />
        </mxCell>
        <mxCell id="O9GT7WR2b5fpZviuFctH-5" value="" style="verticalLabelPosition=bottom;verticalAlign=top;html=1;shape=mxgraph.basic.patternFillRect;fillStyle=diagGrid;step=5;fillStrokeWidth=0.2;fillStrokeColor=#dddddd;fillColor=#f8cecc;strokeColor=#b85450;container=0;" vertex="1" parent="O9GT7WR2b5fpZviuFctH-14">
          <mxGeometry width="180" height="240" as="geometry" />
        </mxCell>
        <mxCell id="O9GT7WR2b5fpZviuFctH-7" value="DMZ Network - VLAN 3" style="text;html=1;align=center;verticalAlign=middle;whiteSpace=wrap;rounded=0;container=0;" vertex="1" parent="O9GT7WR2b5fpZviuFctH-14">
          <mxGeometry x="10" y="10" width="160" height="30" as="geometry" />
        </mxCell>
        <mxCell id="O9GT7WR2b5fpZviuFctH-12" value="" style="image;aspect=fixed;perimeter=ellipsePerimeter;html=1;align=center;shadow=0;dashed=0;spacingTop=3;image=img/lib/active_directory/web_server.svg;" vertex="1" parent="O9GT7WR2b5fpZviuFctH-14">
          <mxGeometry x="62" y="60" width="56" height="70" as="geometry" />
        </mxCell>
        <mxCell id="O9GT7WR2b5fpZviuFctH-13" value="Game" style="html=1;whiteSpace=wrap;strokeColor=none;fillColor=#0079D6;labelPosition=center;verticalLabelPosition=middle;verticalAlign=top;align=center;fontSize=12;outlineConnect=0;spacingTop=-6;fontColor=#FFFFFF;sketch=0;shape=mxgraph.sitemap.game;" vertex="1" parent="O9GT7WR2b5fpZviuFctH-14">
          <mxGeometry x="30" y="158" width="120" height="70" as="geometry" />
        </mxCell>
      </root>
    </mxGraphModel>
  </diagram>
  <diagram id="Gb6d37-UPHib0LbdX8OH" name="Rack Diagram">
    <mxGraphModel dx="1028" dy="693" grid="1" gridSize="10" guides="1" tooltips="1" connect="1" arrows="1" fold="1" page="1" pageScale="1" pageWidth="850" pageHeight="1100" math="0" shadow="0">
      <root>
        <mxCell id="0" />
        <mxCell id="1" parent="0" />
        <mxCell id="Bl_BZ6ZDCui6poIAxsSx-22" value="" style="group" vertex="1" connectable="0" parent="1">
          <mxGeometry x="292" y="219" width="610" height="663" as="geometry" />
        </mxCell>
        <mxCell id="Bl_BZ6ZDCui6poIAxsSx-1" value="" style="strokeColor=#666666;html=1;verticalLabelPosition=bottom;labelBackgroundColor=#ffffff;verticalAlign=top;outlineConnect=0;shadow=0;dashed=0;shape=mxgraph.rackGeneral.rackCabinet3;fillColor2=#f4f4f4;container=0;collapsible=0;childLayout=rack;allowGaps=1;marginLeft=33;marginRight=9;marginTop=21;marginBottom=22;textColor=#666666;numDisp=ascend;" vertex="1" parent="Bl_BZ6ZDCui6poIAxsSx-22">
          <mxGeometry width="266" height="663" as="geometry" />
        </mxCell>
        <mxCell id="Bl_BZ6ZDCui6poIAxsSx-9" value="" style="strokeColor=#666666;html=1;labelPosition=right;align=left;spacingLeft=15;shadow=0;dashed=0;outlineConnect=0;shape=mxgraph.rack.f5.arx_500;" vertex="1" parent="Bl_BZ6ZDCui6poIAxsSx-22">
          <mxGeometry x="36.27272727272728" y="21.93383458646617" width="219.83471074380165" height="17.945864661654134" as="geometry" />
        </mxCell>
        <mxCell id="Bl_BZ6ZDCui6poIAxsSx-10" value="" style="strokeColor=#666666;html=1;labelPosition=right;align=left;spacingLeft=15;shadow=0;dashed=0;outlineConnect=0;shape=mxgraph.rackGeneral.plate;fillColor=#e8e8e8;" vertex="1" parent="Bl_BZ6ZDCui6poIAxsSx-22">
          <mxGeometry x="36.27272727272728" y="39.87969924812029" width="219.83471074380165" height="14.954887218045114" as="geometry" />
        </mxCell>
        <mxCell id="Bl_BZ6ZDCui6poIAxsSx-11" value="" style="html=1;verticalLabelPosition=bottom;verticalAlign=top;outlineConnect=0;shadow=0;dashed=0;shape=mxgraph.rack.hpe_aruba.switches.jl658a_aruba_6300m_24_port_sfpplus_and_4_port_sfp56_switch;" vertex="1" parent="Bl_BZ6ZDCui6poIAxsSx-22">
          <mxGeometry x="36.27272727272728" y="54.83458646616542" width="219.83471074380165" height="14.954887218045114" as="geometry" />
        </mxCell>
        <mxCell id="Bl_BZ6ZDCui6poIAxsSx-12" value="" style="strokeColor=#666666;html=1;labelPosition=right;align=left;spacingLeft=15;shadow=0;dashed=0;outlineConnect=0;shape=mxgraph.rackGeneral.plate;fillColor=#e8e8e8;" vertex="1" parent="Bl_BZ6ZDCui6poIAxsSx-22">
          <mxGeometry x="36.27272727272728" y="69.78947368421052" width="219.83471074380165" height="14.954887218045114" as="geometry" />
        </mxCell>
        <mxCell id="Bl_BZ6ZDCui6poIAxsSx-8" value="" style="html=1;verticalLabelPosition=bottom;verticalAlign=top;outlineConnect=0;shadow=0;dashed=0;shape=mxgraph.rack.hpe_aruba.switches.j9776a_2530_24g_switch;" vertex="1" parent="Bl_BZ6ZDCui6poIAxsSx-22">
          <mxGeometry x="36.27272727272728" y="84.74436090225562" width="219.83471074380165" height="14.954887218045114" as="geometry" />
        </mxCell>
        <mxCell id="Bl_BZ6ZDCui6poIAxsSx-17" value="" style="strokeColor=#666666;html=1;labelPosition=right;align=left;spacingLeft=15;shadow=0;dashed=0;outlineConnect=0;shape=mxgraph.rackGeneral.plate;fillColor=#e8e8e8;" vertex="1" parent="Bl_BZ6ZDCui6poIAxsSx-22">
          <mxGeometry x="36.27272727272728" y="319.0375939849623" width="219.83471074380165" height="14.954887218045114" as="geometry" />
        </mxCell>
        <mxCell id="Bl_BZ6ZDCui6poIAxsSx-16" value="" style="strokeColor=#666666;html=1;labelPosition=right;align=left;spacingLeft=15;shadow=0;dashed=0;outlineConnect=0;shape=mxgraph.rack.dell.poweredge_r640;" vertex="1" parent="Bl_BZ6ZDCui6poIAxsSx-22">
          <mxGeometry x="36.27272727272728" y="341.96842105263164" width="219.83471074380165" height="14.954887218045114" as="geometry" />
        </mxCell>
        <mxCell id="Bl_BZ6ZDCui6poIAxsSx-14" value="" style="strokeColor=#666666;html=1;labelPosition=right;align=left;spacingLeft=15;shadow=0;dashed=0;outlineConnect=0;shape=mxgraph.rack.dell.poweredge_r740xd;" vertex="1" parent="Bl_BZ6ZDCui6poIAxsSx-22">
          <mxGeometry x="36.27272727272728" y="358.91729323308266" width="219.83471074380165" height="29.909774436090228" as="geometry" />
        </mxCell>
        <mxCell id="Bl_BZ6ZDCui6poIAxsSx-15" value="" style="strokeColor=#666666;html=1;labelPosition=right;align=left;spacingLeft=15;shadow=0;dashed=0;outlineConnect=0;shape=mxgraph.rack.dell.poweredge_r740xd;" vertex="1" parent="Bl_BZ6ZDCui6poIAxsSx-22">
          <mxGeometry x="36.27272727272728" y="388.82706766917295" width="219.83471074380165" height="29.909774436090228" as="geometry" />
        </mxCell>
        <mxCell id="Bl_BZ6ZDCui6poIAxsSx-3" value="" style="strokeColor=#666666;html=1;labelPosition=right;align=left;spacingLeft=15;shadow=0;dashed=0;outlineConnect=0;shape=mxgraph.rack.dell.dell_poweredge_4u;" vertex="1" parent="Bl_BZ6ZDCui6poIAxsSx-22">
          <mxGeometry x="36.27272727272728" y="548.3458646616541" width="219.83471074380165" height="61.813533834586465" as="geometry" />
        </mxCell>
        <mxCell id="Bl_BZ6ZDCui6poIAxsSx-2" value="" style="shape=mxgraph.rack.apc.apc_smart_ups_1000-3000_va_2u;html=1;labelPosition=right;align=left;spacingLeft=15;dashed=0;shadow=0;fillColor=#ffffff;" vertex="1" parent="Bl_BZ6ZDCui6poIAxsSx-22">
          <mxGeometry x="36.27272727272728" y="610.1593984962406" width="219.83471074380165" height="29.909774436090228" as="geometry" />
        </mxCell>
        <mxCell id="Bl_BZ6ZDCui6poIAxsSx-21" value="" style="strokeColor=#666666;html=1;verticalLabelPosition=bottom;labelBackgroundColor=#ffffff;verticalAlign=top;outlineConnect=0;shadow=0;dashed=0;shape=mxgraph.rack.general.server_3;" vertex="1" parent="Bl_BZ6ZDCui6poIAxsSx-22">
          <mxGeometry x="54.95867768595041" y="259.2180451127819" width="58.256198347107436" height="59.819548872180455" as="geometry" />
        </mxCell>
        <mxCell id="Bl_BZ6ZDCui6poIAxsSx-33" value="&lt;span style=&quot;color: light-dark(rgb(0, 0, 0), rgb(255, 255, 255));&quot;&gt;&lt;font style=&quot;font-size: 14px;&quot;&gt;&lt;span style=&quot;caret-color: rgb(25, 25, 25); font-family: &amp;quot;Market Sans&amp;quot;, Arial, sans-serif; background-color: rgb(255, 255, 255); color: rgb(25, 25, 25);&quot;&gt;Supermicro CSE-847BE1C-R1&lt;/span&gt;&lt;span style=&quot;caret-color: light-dark(rgb(25, 25, 25), rgb(216, 216, 216));&quot;&gt;&lt;wbr style=&quot;box-sizing: border-box; margin: 0px; padding: 0px; caret-color: rgb(25, 25, 25); font-family: &amp;quot;Market Sans&amp;quot;, Arial, sans-serif; color: rgb(25, 25, 25);&quot;&gt;&lt;/span&gt;&lt;span style=&quot;caret-color: rgb(25, 25, 25); font-family: &amp;quot;Market Sans&amp;quot;, Arial, sans-serif; background-color: rgb(255, 255, 255); color: rgb(25, 25, 25);&quot;&gt;K28LPB 4U 36-Bay&lt;/span&gt;&lt;/font&gt;&lt;/span&gt;" style="text;html=1;align=left;verticalAlign=middle;whiteSpace=wrap;rounded=0;" vertex="1" parent="Bl_BZ6ZDCui6poIAxsSx-22">
          <mxGeometry x="278" y="564.25" width="324" height="30" as="geometry" />
        </mxCell>
        <mxCell id="Bl_BZ6ZDCui6poIAxsSx-34" value="&lt;h1 style=&quot;text-align: start; box-sizing: border-box; padding: 0px; margin-top: 0px; margin-right: 0px; margin-left: 0px; text-rendering: optimizelegibility; font-weight: 400; caret-color: rgb(15, 17, 17); color: rgb(15, 17, 17); font-family: &amp;quot;Amazon Ember&amp;quot;, Arial, sans-serif; margin-bottom: 0px !important; line-height: 32px !important;&quot; class=&quot;a-size-large a-spacing-none&quot;&gt;&lt;span style=&quot;box-sizing: border-box; text-rendering: optimizelegibility; word-break: break-word; line-height: 32px !important;&quot; class=&quot;a-size-large product-title-word-break&quot; id=&quot;productTitle&quot;&gt;&lt;font style=&quot;font-size: 14px;&quot;&gt;Eaton Tripp Lite Series 2200VA Smart UPS&lt;/font&gt;&lt;/span&gt;&lt;/h1&gt;" style="text;html=1;align=center;verticalAlign=middle;whiteSpace=wrap;rounded=0;" vertex="1" parent="Bl_BZ6ZDCui6poIAxsSx-22">
          <mxGeometry x="278" y="610.07" width="274" height="30" as="geometry" />
        </mxCell>
        <mxCell id="Bl_BZ6ZDCui6poIAxsSx-23" value="UDM-SE" style="text;html=1;align=center;verticalAlign=middle;whiteSpace=wrap;rounded=0;" vertex="1" parent="1">
          <mxGeometry x="570" y="235" width="60" height="30" as="geometry" />
        </mxCell>
        <mxCell id="Bl_BZ6ZDCui6poIAxsSx-24" value="&lt;span style=&quot;text-align: start; caret-color: rgb(128, 136, 147); font-family: &amp;quot;UI Sans&amp;quot;, Lato, HelveticaNeue, &amp;quot;Helvetica Neue&amp;quot;, Helvetica, Arial, sans-serif; background-color: rgb(255, 255, 255); color: light-dark(rgb(128, 136, 147), rgb(255, 255, 255));&quot;&gt;USW-Pro-Aggregation&lt;/span&gt;" style="text;html=1;align=center;verticalAlign=middle;whiteSpace=wrap;rounded=0;" vertex="1" parent="1">
          <mxGeometry x="570" y="266" width="130" height="30" as="geometry" />
        </mxCell>
        <mxCell id="Bl_BZ6ZDCui6poIAxsSx-25" value="&lt;span style=&quot;text-align: start; caret-color: rgb(128, 136, 147); font-family: &amp;quot;UI Sans&amp;quot;, Lato, HelveticaNeue, &amp;quot;Helvetica Neue&amp;quot;, Helvetica, Arial, sans-serif; background-color: rgb(255, 255, 255); color: light-dark(rgb(128, 136, 147), rgb(255, 255, 255));&quot;&gt;USW-Pro-24&lt;/span&gt;" style="text;html=1;align=center;verticalAlign=middle;whiteSpace=wrap;rounded=0;" vertex="1" parent="1">
          <mxGeometry x="558" y="296" width="102" height="30" as="geometry" />
        </mxCell>
        <mxCell id="Bl_BZ6ZDCui6poIAxsSx-26" value="TerraMaster FS-424 MAX" style="text;html=1;align=center;verticalAlign=middle;whiteSpace=wrap;rounded=0;" vertex="1" parent="1">
          <mxGeometry x="570" y="493.13" width="143.81" height="30" as="geometry" />
        </mxCell>
        <mxCell id="Bl_BZ6ZDCui6poIAxsSx-29" value="Dell PowerEdge R440" style="text;html=1;align=center;verticalAlign=middle;whiteSpace=wrap;rounded=0;" vertex="1" parent="1">
          <mxGeometry x="570" y="550" width="122" height="30" as="geometry" />
        </mxCell>
        <mxCell id="Bl_BZ6ZDCui6poIAxsSx-31" value="&lt;span style=&quot;text-align: start; white-space: pre-wrap; font-family: Roboto, Arial, sans-serif; font-size: 14px; background-color: rgba(255, 255, 255, 0.1);&quot;&gt;Supermicro SuperServer 6028TR-DTR 2-Node Server&lt;/span&gt;" style="text;html=1;align=center;verticalAlign=middle;whiteSpace=wrap;rounded=0;" vertex="1" parent="1">
          <mxGeometry x="570" y="580" width="340" height="30" as="geometry" />
        </mxCell>
        <mxCell id="Bl_BZ6ZDCui6poIAxsSx-32" value="&lt;span style=&quot;font-family: Poppins, sans-serif; font-size: 14px; text-align: left; color: light-dark(rgb(0, 0, 0), rgb(255, 255, 255));&quot;&gt;Supermicro SuperServer 6028U-TR4T+ 12 Bay LFF&lt;/span&gt;" style="text;html=1;align=center;verticalAlign=middle;whiteSpace=wrap;rounded=0;" vertex="1" parent="1">
          <mxGeometry x="570" y="610" width="330" height="30" as="geometry" />
        </mxCell>
      </root>
    </mxGraphModel>
  </diagram>
</mxfile>
